<svg id="Capa_1" enable-background="new 0 0 512 512" height="512" viewBox="0 0 512 512" width="512" xmlns="http://www.w3.org/2000/svg"><g><g><path d="m315.389 335.69h34.953c15.266 0 27.686-12.492 27.686-27.846v-24.9h24.563c15.266 0 27.686-12.492 27.686-27.846v-35.297c0-15.354-12.42-27.846-27.686-27.846h-24.563v-24.9c0-15.354-12.42-27.846-27.686-27.846h-34.953c-15.266 0-27.686 12.492-27.686 27.846v24.9h-24.563c-15.266 0-27.686 12.492-27.686 27.846v35.297c0 15.354 12.42 27.846 27.686 27.846h24.563v24.9c0 15.354 12.42 27.846 27.686 27.846zm-52.249-72.746c-4.238 0-7.686-3.52-7.686-7.846v-35.297c0-4.327 3.447-7.846 7.686-7.846h34.564c5.522 0 10-4.477 10-10v-34.9c0-4.326 3.447-7.846 7.686-7.846h34.953c4.238 0 7.686 3.519 7.686 7.846v34.9c0 5.523 4.478 10 10 10h34.563c4.238 0 7.686 3.52 7.686 7.846v35.297c0 4.327-3.447 7.846-7.686 7.846h-34.563c-5.522 0-10 4.477-10 10v34.9c0 4.326-3.447 7.846-7.686 7.846h-34.953c-4.238 0-7.686-3.52-7.686-7.846v-34.9c0-5.523-4.478-10-10-10z"/><path d="m463.026 55.965h-260.321c-27.004 0-48.974 21.988-48.974 49.016v.737h-11.166c-20.283 0-36.785 16.502-36.785 36.785v14.169c-15.921 2.162-29.459 13.161-34.678 28.725l-27.16 81.003h-14.472c-3.655 0-7.02 1.995-8.773 5.202l-19.47 35.6c-.805 1.471-1.227 3.121-1.227 4.798v96.933c0 5.523 4.477 10 10 10h30.871c4.594 21.185 23.472 37.102 45.995 37.102s41.4-15.917 45.994-37.102h221.218c4.594 21.185 23.472 37.102 45.995 37.102s41.4-15.917 45.994-37.102h16.96c27.004 0 48.974-21.988 48.974-49.016v-74.851c0-5.523-4.478-10-10-10s-10 4.477-10 10v74.851c0 15.999-12.997 29.016-28.974 29.016h-16.96c-4.594-21.185-23.471-37.102-45.994-37.102s-41.401 15.917-45.995 37.102h-180.347v-293.952c0-16 12.997-29.016 28.974-29.016h260.321c15.977 0 28.974 13.016 28.974 29.016v99.673c0 5.523 4.478 10 10 10s10-4.477 10-10v-99.673c0-27.027-21.97-49.016-48.974-49.016zm-62.954 325.866c14.922 0 27.061 12.158 27.061 27.102s-12.14 27.102-27.061 27.102c-14.922 0-27.063-12.158-27.063-27.102.001-14.944 12.141-27.102 27.063-27.102zm-274.292-239.328c0-9.255 7.53-16.785 16.785-16.785h11.166v30.564h-27.951zm-35.715 49.252c3.103-9.255 11.737-15.473 21.484-15.473h42.182v90.118h-88.694zm-70.065 160.912h18.617c5.523 0 10-4.477 10-10s-4.477-10-10-10h-18.617v-18.111l15.399-28.156h118.332v112.533h-20.871c-4.594-21.185-23.472-37.102-45.994-37.102-22.523 0-41.401 15.917-45.995 37.102h-20.871zm66.866 83.368c-14.922 0-27.062-12.158-27.062-27.102s12.14-27.102 27.062-27.102 27.062 12.158 27.062 27.102-12.14 27.102-27.062 27.102z"/><path d="m510.31 244.49c-2.343-3.585-6.956-5.231-11.052-4.055-3.972 1.14-6.866 4.674-7.22 8.79-.358 4.154 2.047 8.214 5.84 9.925 3.743 1.689 8.283.882 11.192-2.03 3.331-3.336 3.853-8.714 1.24-12.63z"/></g></g></svg>